<svg xmlns="http://www.w3.org/2000/svg" viewBox="0 0 350 350">

<!-- view box -->
<path d="M 0 0 v 350 h 350 v -350 " style="fill: honeydew; stroke: grey; stroke-width: 0.5" />

<path d="M 325,350
         a 120 120 0 0 1 -10 -50
         a 120 120 0 0 0 -10 -50
         a 120 120 0 0 1 -20 -100
         a 120 120 0 0 0 -30 -100
         a 120 120 0 0 0 -150 0
         a 120 120 0 0 0 -30 100
         a 120 120 0 0 1 -20 100
         a 120 120 0 0 0 -10 50
         a 120 120 0 0 1 -10 50"
         style="fill:darksalmon;stroke:black;stroke-width:0.3" />

<!-- body -->
<path d="M 160,200
         v 50
         a 120 120 0 0 1 -30 10
         a 180 180 0 0 0 0 100
         h 100
         a 180 180 0 0 0 0 -100
         a 120 120 0 0 0 -30 -10
         v -50"
         style="fill:brown;stroke:none;stroke-width:0.2" />

<!-- head -->
<path d="M 100,130
         a 120 120 0 0 0 20 60
         a 120 120 0 0 0 60 30
         a 120 120 0 0 0 60 -30
         a 120 120 0 0 0 20 -60
         a 120 120 0 0 0 -10 -40
         a 50 50 0 0 0 -50 -10
         a 50 50 0 0 1 -50 -10
         a 50 50 0 0 1 -45 10
         a 120 120 0 0 0 -5 50"
         style="fill:brown;stroke:black;stroke-width:0.2" />

<!-- clothes -->
<path d="M 150,350
         a 120 120 0 0 1 0 -50
         a 120 120 0 0 1 30 30
         a 120 120 0 0 1 30 -30
         a 120 120 0 0 1 0 50"
         style="fill:crimson;stroke:black;stroke-width:0.3" />

<!-- eyes -->
<path d="M 160,140
         a 30 30 0 0 0 -40 -10
         a 30 30 0 0 0 35 10
         z"
         style="fill:white;stroke:black;stroke-width:2" />
<circle cx="142" cy="133" r="6" style="fill:black" />
<circle cx="142" cy="132" r="1" style="fill:white" />
<path d="M 200,140
         a 30 30 0 0 1 40 -10
         a 30 30 0 0 1 -35 10
         z"
         style="fill:white;stroke:black;stroke-width:2" />
<circle cx="217" cy="133" r="6" style="fill:black" />
<circle cx="217" cy="132" r="1" style="fill:white" />
<path d="M 160,139
         a 30 30 0 0 0 -40 -10"
         style="fill:none;stroke:black;stroke-width:4" />
<path d="M 200,139
         a 30 30 0 0 1 40 -10"
         style="fill:none;stroke:black;stroke-width:4" />
<path d="M 120,129
         a 30 30 0 0 1 -8 -5"
         style="fill:black;stroke:black;stroke-width:4" />
<path d="M 240,129
         a 30 30 0 0 0 8 -5"
         style="fill:black;stroke:black;stroke-width:4" />

<!-- mouth -->
<path d="M 165,180
         a 30 60 0 0 1 15 0
         l 2 0
         a 30 60 0 0 1 15 0
         a 20 20 0 0 1 -30 0"
         style="fill:crimson;stroke:black;stroke-width:1" />
<path d="M 165,180
         a 60 60 0 0 0 30 0"
         style="fill:red;stroke:black;stroke-width:2" />

</svg>
