<svg xmlns="http://www.w3.org/2000/svg" viewBox="0 0 350 350">

<!-- view box -->
<path d="M 0 0 v 350 h 350 v -350 " style="fill: honeydew; stroke: grey; stroke-width: 0.5" />

<!-- body -->
<path d="M 140 225 l 1 4 l 2 6 l 0 8 l -2 10
         l -2 8 l -4 10 l -4 4 l -8 1 l -8 1
         l -8 1 l -8 1 l -8 1 l -8 1 l -8 4
         l -8 6 l -8 8 l -8 10 l -8 20 l -8 30
         l -8 40 h 285 l -8 -40 l -8 -30 l -8 -20
         l -8 -10 l -8 -8 l -8 -6 l -8 -4 l -8 -1
         l -8 -1 l -8 -1 l -8 -1 l -8 -1 l -8 -1
         l -4 -4 l -4 -10 l -2 -8 l -2 -10 l 0 -8
         l 2 -6 l 1 -4 h -60
        " style="fill: blanchedalmond; stroke: grey; stroke-width: 0.5" />


<!-- collar shirt -->
<path d="M 170 300
         l -40 -30
         l -72 15
         l -25 70
         h 275 0
         l -30 -70
         l -72 -15
         l -40 30
        " style="fill: lightgreen; stroke: grey; stroke-width: 0.5; stroke-linejoin: round; stroke-linecap: round" />

<!-- banian -->
<path d="M 120 278 l -10 1 l 1 25 l 2 25 l -1 25
         h 130
         l -2 -25 l -2 -25 l -2 -25 l -10 -1
         v 25
         a 52 52 0 0 1 -52 40 a 52 52 0 0 1 -52 -40
         v -25
      " style="fill: none; stroke: none; stroke-width: 0.5"/>

<!-- tie -->
<path d="M 130 270 a 50 5 0 0 0 85 0 l 10 5 a 50 5 0 0 1 -45 5 l 5 50 l -15 10 l -15 -10 l 5 -50 a 50 5 0 0 1 -48 -5 " style="fill: none; stroke: none; stroke-width: 0.4"/>

<!-- neck tie -->
<path d="M 130 275 a 50 50 0 0 0 0 30 l 30 -10 l 20 0 l 30 10 a 50 50 0 0 0 0 -30 l -30 10 l -20 0 l -30 -10 " style="fill: red; stroke: none; stroke-width: 0.4"/>

<!-- arm pits -->
<path d="M 100 320 l -4 20 l -4 40 l -4 40 " style="fill: none; stroke: grey; stroke-width: 1" />
<path d="M 101 320 l -4 20 l -4 40 l -4 40 " style="fill: none; stroke: grey; stroke-width: 1" />
<path d="M 240 320 l 4 20 l 4 40 l 4 40 " style="fill: none; stroke: grey; stroke-width: 1" />
<path d="M 241 320 l 4 20 l 4 40 l 4 40 " style="fill: none; stroke: grey; stroke-width: 1" />
<path d="M 58 285 l 20 15 l 20 20 " style="fill: grey; stroke: grey; stroke-width: 1" />
<path d="M 58 286 l 20 15 l 20 20 " style="fill: grey; stroke: grey; stroke-width: 1" />
<path d="M 280 285 l -20 15 l -20 20 " style="fill: grey; stroke: grey; stroke-width: 1" />
<path d="M 280 286 l -20 15 l -20 20 " style="fill: grey; stroke: grey; stroke-width: 1" />

<!-- body hair -->
<path d="M 60 320 l -4 4 l -4 6 l -4 8 " style="fill: none; stroke: grey" />
<path d="M 60 325 l -4 4 l -4 6 l -4 8 " style="fill: none; stroke: grey" />
<path d="M 130 275 h 10 l 10 2" style="fill: none; stroke: grey" />
<path d="M 130 277 h 12 l 10 2" style="fill: none; stroke: grey" />
<path d="M 210 275 h -10 l -10 2" style="fill: none; stroke: grey" />
<path d="M 210 277 h -12 l -10 2" style="fill: none; stroke: grey" />
<path d="M 280 320 l 4 4 l 4 6 l 4 8 " style="fill: none; stroke: grey" />
<path d="M 280 325 l 4 4 l 4 6 l 4 8 " style="fill: none; stroke: grey" />

<!-- square -->
<path d="M 100 120 l 10 120 l 120 -10 l -10 -120 l -120 10 " style="fill: dodgerblue; stroke: none; stroke-width: 0.5"/>
<!-- triangle -->
<path d="M 100 235 l 140 -10 l -80 -120 l -55 120 " style="fill: none; stroke: none; stroke-width: 0.5"/>
<!-- rectangle -->
<path d="M 80 235 l 180 -10 l -10 -90 l -180 10 l 10 90 " style="fill: none; stroke: none; stroke-width: 0.5"/>
<!-- circle -->
<path d="M 110 180 a 60 60 0 0 0 60 60 a 60 60 0 0 0 60 -60 a 60 60 0 0 0 -60 -60 a 60 60 0 0 0 -60 60 " style="fill: none; stroke: none; stroke-width: 0.5"/>
<!-- oval -->
<path d="M 105 160 a 60 80 -10 0 0 60 80 a 60 80 -10 0 0 60 -80 a 60 80 -10 0 0 -60 -80 a 60 80 -10 0 0 -60 80 " style="fill: none; stroke: none; stroke-width: 0.5"/>


</svg>
